<mxfile host="app.diagrams.net" modified="2023-06-06T19:09:47.901Z" agent="Mozilla/5.0 (Windows NT 10.0; Win64; x64) AppleWebKit/537.36 (KHTML, like Gecko) Chrome/114.0.0.0 Safari/537.36" etag="1WTNmNESU95pbEbg3L_P" version="21.3.6" type="google">
  <diagram name="Page-1" id="dn47nm7WnIPuxmUmyqz_">
    <mxGraphModel grid="1" page="1" gridSize="10" guides="1" tooltips="1" connect="1" arrows="1" fold="1" pageScale="1" pageWidth="850" pageHeight="1100" math="0" shadow="0">
      <root>
        <mxCell id="0" />
        <mxCell id="1" parent="0" />
        <mxCell id="_U09vwMULpiBZMUQhYPZ-12" style="rounded=0;orthogonalLoop=1;jettySize=auto;html=1;entryX=0;entryY=0.5;entryDx=0;entryDy=0;" edge="1" parent="1" source="_U09vwMULpiBZMUQhYPZ-1" target="_U09vwMULpiBZMUQhYPZ-8">
          <mxGeometry relative="1" as="geometry" />
        </mxCell>
        <mxCell id="_U09vwMULpiBZMUQhYPZ-15" style="rounded=0;orthogonalLoop=1;jettySize=auto;html=1;entryX=0;entryY=0.5;entryDx=0;entryDy=0;" edge="1" parent="1" source="_U09vwMULpiBZMUQhYPZ-1" target="_U09vwMULpiBZMUQhYPZ-2">
          <mxGeometry relative="1" as="geometry" />
        </mxCell>
        <mxCell id="_U09vwMULpiBZMUQhYPZ-30" style="edgeStyle=none;rounded=0;orthogonalLoop=1;jettySize=auto;html=1;entryX=0;entryY=0.5;entryDx=0;entryDy=0;" edge="1" parent="1" source="_U09vwMULpiBZMUQhYPZ-1" target="_U09vwMULpiBZMUQhYPZ-20">
          <mxGeometry relative="1" as="geometry" />
        </mxCell>
        <mxCell id="_U09vwMULpiBZMUQhYPZ-31" style="edgeStyle=none;rounded=0;orthogonalLoop=1;jettySize=auto;html=1;entryX=0;entryY=0.5;entryDx=0;entryDy=0;" edge="1" parent="1" source="_U09vwMULpiBZMUQhYPZ-1" target="_U09vwMULpiBZMUQhYPZ-21">
          <mxGeometry relative="1" as="geometry" />
        </mxCell>
        <mxCell id="_U09vwMULpiBZMUQhYPZ-1" value="librarian" style="shape=umlActor;verticalLabelPosition=bottom;verticalAlign=top;html=1;outlineConnect=0;" vertex="1" parent="1">
          <mxGeometry x="100" y="270" width="30" height="60" as="geometry" />
        </mxCell>
        <mxCell id="_U09vwMULpiBZMUQhYPZ-2" value="check out book" style="ellipse;whiteSpace=wrap;html=1;" vertex="1" parent="1">
          <mxGeometry x="365" y="10" width="120" height="80" as="geometry" />
        </mxCell>
        <mxCell id="_U09vwMULpiBZMUQhYPZ-10" style="rounded=0;orthogonalLoop=1;jettySize=auto;html=1;entryX=1;entryY=0.5;entryDx=0;entryDy=0;" edge="1" parent="1" source="_U09vwMULpiBZMUQhYPZ-3" target="_U09vwMULpiBZMUQhYPZ-8">
          <mxGeometry relative="1" as="geometry" />
        </mxCell>
        <mxCell id="_U09vwMULpiBZMUQhYPZ-23" style="edgeStyle=none;rounded=0;orthogonalLoop=1;jettySize=auto;html=1;entryX=1;entryY=0.5;entryDx=0;entryDy=0;" edge="1" parent="1" source="_U09vwMULpiBZMUQhYPZ-3" target="_U09vwMULpiBZMUQhYPZ-2">
          <mxGeometry relative="1" as="geometry" />
        </mxCell>
        <mxCell id="_U09vwMULpiBZMUQhYPZ-24" style="edgeStyle=none;rounded=0;orthogonalLoop=1;jettySize=auto;html=1;entryX=1;entryY=0.5;entryDx=0;entryDy=0;" edge="1" parent="1" source="_U09vwMULpiBZMUQhYPZ-3" target="_U09vwMULpiBZMUQhYPZ-20">
          <mxGeometry relative="1" as="geometry" />
        </mxCell>
        <mxCell id="_U09vwMULpiBZMUQhYPZ-25" style="edgeStyle=none;rounded=0;orthogonalLoop=1;jettySize=auto;html=1;entryX=1;entryY=0.5;entryDx=0;entryDy=0;" edge="1" parent="1" source="_U09vwMULpiBZMUQhYPZ-3" target="_U09vwMULpiBZMUQhYPZ-21">
          <mxGeometry relative="1" as="geometry" />
        </mxCell>
        <mxCell id="_U09vwMULpiBZMUQhYPZ-26" style="edgeStyle=none;rounded=0;orthogonalLoop=1;jettySize=auto;html=1;entryX=1;entryY=0.5;entryDx=0;entryDy=0;" edge="1" parent="1" source="_U09vwMULpiBZMUQhYPZ-3" target="_U09vwMULpiBZMUQhYPZ-6">
          <mxGeometry relative="1" as="geometry" />
        </mxCell>
        <mxCell id="_U09vwMULpiBZMUQhYPZ-27" style="edgeStyle=none;rounded=0;orthogonalLoop=1;jettySize=auto;html=1;entryX=1;entryY=0.5;entryDx=0;entryDy=0;" edge="1" parent="1" source="_U09vwMULpiBZMUQhYPZ-3" target="_U09vwMULpiBZMUQhYPZ-7">
          <mxGeometry relative="1" as="geometry" />
        </mxCell>
        <mxCell id="_U09vwMULpiBZMUQhYPZ-28" style="edgeStyle=none;rounded=0;orthogonalLoop=1;jettySize=auto;html=1;entryX=1;entryY=0.5;entryDx=0;entryDy=0;" edge="1" parent="1" source="_U09vwMULpiBZMUQhYPZ-3" target="_U09vwMULpiBZMUQhYPZ-5">
          <mxGeometry relative="1" as="geometry" />
        </mxCell>
        <mxCell id="_U09vwMULpiBZMUQhYPZ-29" style="edgeStyle=none;rounded=0;orthogonalLoop=1;jettySize=auto;html=1;entryX=1;entryY=0.5;entryDx=0;entryDy=0;" edge="1" parent="1" source="_U09vwMULpiBZMUQhYPZ-3" target="_U09vwMULpiBZMUQhYPZ-18">
          <mxGeometry relative="1" as="geometry" />
        </mxCell>
        <mxCell id="_U09vwMULpiBZMUQhYPZ-3" value="Both" style="shape=umlActor;verticalLabelPosition=bottom;verticalAlign=top;html=1;outlineConnect=0;" vertex="1" parent="1">
          <mxGeometry x="740" y="340" width="30" height="60" as="geometry" />
        </mxCell>
        <mxCell id="_U09vwMULpiBZMUQhYPZ-13" style="rounded=0;orthogonalLoop=1;jettySize=auto;html=1;entryX=0;entryY=1;entryDx=0;entryDy=0;" edge="1" parent="1" source="_U09vwMULpiBZMUQhYPZ-4" target="_U09vwMULpiBZMUQhYPZ-8">
          <mxGeometry relative="1" as="geometry" />
        </mxCell>
        <mxCell id="_U09vwMULpiBZMUQhYPZ-14" style="rounded=0;orthogonalLoop=1;jettySize=auto;html=1;entryX=0;entryY=0.5;entryDx=0;entryDy=0;" edge="1" parent="1" source="_U09vwMULpiBZMUQhYPZ-4" target="_U09vwMULpiBZMUQhYPZ-6">
          <mxGeometry relative="1" as="geometry" />
        </mxCell>
        <mxCell id="_U09vwMULpiBZMUQhYPZ-16" style="edgeStyle=orthogonalEdgeStyle;rounded=0;orthogonalLoop=1;jettySize=auto;html=1;entryX=0;entryY=0.5;entryDx=0;entryDy=0;" edge="1" parent="1" source="_U09vwMULpiBZMUQhYPZ-4" target="_U09vwMULpiBZMUQhYPZ-7">
          <mxGeometry relative="1" as="geometry" />
        </mxCell>
        <mxCell id="_U09vwMULpiBZMUQhYPZ-17" style="rounded=0;orthogonalLoop=1;jettySize=auto;html=1;entryX=0;entryY=0.5;entryDx=0;entryDy=0;" edge="1" parent="1" source="_U09vwMULpiBZMUQhYPZ-4" target="_U09vwMULpiBZMUQhYPZ-5">
          <mxGeometry relative="1" as="geometry" />
        </mxCell>
        <mxCell id="_U09vwMULpiBZMUQhYPZ-19" style="rounded=0;orthogonalLoop=1;jettySize=auto;html=1;entryX=0;entryY=0.5;entryDx=0;entryDy=0;" edge="1" parent="1" source="_U09vwMULpiBZMUQhYPZ-4" target="_U09vwMULpiBZMUQhYPZ-18">
          <mxGeometry relative="1" as="geometry" />
        </mxCell>
        <mxCell id="_U09vwMULpiBZMUQhYPZ-4" value="administrator" style="shape=umlActor;verticalLabelPosition=bottom;verticalAlign=top;html=1;outlineConnect=0;" vertex="1" parent="1">
          <mxGeometry x="100" y="560" width="30" height="60" as="geometry" />
        </mxCell>
        <mxCell id="_U09vwMULpiBZMUQhYPZ-5" value="&amp;nbsp;add new books to the collection" style="ellipse;whiteSpace=wrap;html=1;" vertex="1" parent="1">
          <mxGeometry x="360" y="660" width="120" height="80" as="geometry" />
        </mxCell>
        <mxCell id="_U09vwMULpiBZMUQhYPZ-6" value=" create new library member" style="ellipse;whiteSpace=wrap;html=1;" vertex="1" parent="1">
          <mxGeometry x="365" y="440" width="120" height="80" as="geometry" />
        </mxCell>
        <mxCell id="_U09vwMULpiBZMUQhYPZ-7" value=" edit library member" style="ellipse;whiteSpace=wrap;html=1;" vertex="1" parent="1">
          <mxGeometry x="365" y="550" width="120" height="80" as="geometry" />
        </mxCell>
        <mxCell id="_U09vwMULpiBZMUQhYPZ-8" value="Login" style="ellipse;whiteSpace=wrap;html=1;" vertex="1" parent="1">
          <mxGeometry x="370" y="330" width="120" height="80" as="geometry" />
        </mxCell>
        <mxCell id="_U09vwMULpiBZMUQhYPZ-18" value="Add a copy of an existing book to the library collection" style="ellipse;whiteSpace=wrap;html=1;" vertex="1" parent="1">
          <mxGeometry x="370" y="770" width="120" height="80" as="geometry" />
        </mxCell>
        <mxCell id="_U09vwMULpiBZMUQhYPZ-20" value="print the &lt;br/&gt;checkout record" style="ellipse;whiteSpace=wrap;html=1;" vertex="1" parent="1">
          <mxGeometry x="365" y="110" width="120" height="80" as="geometry" />
        </mxCell>
        <mxCell id="_U09vwMULpiBZMUQhYPZ-21" value="Determine overdue&amp;nbsp;" style="ellipse;whiteSpace=wrap;html=1;" vertex="1" parent="1">
          <mxGeometry x="360" y="220" width="120" height="80" as="geometry" />
        </mxCell>
      </root>
    </mxGraphModel>
  </diagram>
</mxfile>
